#!OML:ASF H:\Terrain\Patient Classification 1\Terrain2\Thursday\justin.ASF
:FULLY-SPECIFIED
:DEGREES
1277
root 20.1774 23.7284 9.64626 176.135 5.46879 -171.683
lowerback 4.85433 1.05538 7.32349
upperback 3.4598 2.1274 3.88251
thorax 0.956252 1.34346 -0.169083
lowerneck -10.0609 -4.41616 -8.64785
upperneck 41.1141 0.874752 2.44603
head 16.6033 1.28378 3.36944
rclavicle 4.48756e-014 7.7526e-014
rhumerus -32.6435 -7.099 -80.2515
rradius 29.3811
rwrist -11.0493
rhand -19.2816 10.6587
rfingers 7.12502
rthumb 7.0333 -19.2045
lclavicle 4.48756e-014 7.7526e-014
lhumerus -38.975 15.565 80.0945
lradius 20.9512
lwrist -6.59452
lhand -11.2289 21.8644
lfingers 7.12502
lthumb 14.8 51.3159
rfemur 13.6549 -0.308559 33.1353
rtibia 14.0352
rfoot -18.3633 -0.996781
rtoes 18.9126
lfemur -36.0646 5.77013 -10.2565
ltibia 45.2755
lfoot 13.6117 -8.35401
ltoes -5.39006
1278
root 20.1814 23.7053 9.57955 175.944 5.44021 -171.535
lowerback 4.97936 0.95115 7.42377
upperback 3.42161 2.01153 3.89571
thorax 0.843339 1.28479 -0.211725
lowerneck -10.1523 -4.4327 -8.44081
upperneck 41.3739 0.94424 2.3018
head 16.7651 1.33826 3.30064
rclavicle 2.85256e-014 8.78628e-014
rhumerus -32.5878 -6.94066 -80.4137
rradius 29.215
rwrist -11.0963
rhand -19.4744 10.5808
rfingers 7.12502
rthumb 6.84717 -19.2885
lclavicle 2.85256e-014 8.78628e-014
lhumerus -39.255 15.5583 79.9762
lradius 21.3041
lwrist -6.68053
lhand -13.298 20.6376
lfingers 7.12502
lthumb 12.8059 50.2249
rfemur 14.0506 -0.295838 33.3565
rtibia 14.1638
rfoot -18.6026 -1.05505
rtoes 19.5246
lfemur -35.5625 5.38816 -9.94547
ltibia 43.5097
lfoot 14.7023 -7.54018
ltoes -3.98038
1279
root 20.1842 23.68 9.50917 175.817 5.58831 -171.516
lowerback 4.97997 0.901815 7.41671
upperback 3.38172 1.94558 3.90727
thorax 0.797162 1.24847 -0.194608
lowerneck -10.0889 -4.37369 -8.47252
upperneck 41.4371 1.0868 2.25957
head 16.776 1.39431 3.31497
rclavicle -1.89094e-014 -3.06128e-014
rhumerus -32.6361 -6.48232 -80.6269
rradius 29.2925
rwrist -11.4019
rhand -19.3941 10.4313
rfingers 7.12502
rthumb 6.92468 -19.4354
lclavicle -1.89094e-014 -3.06128e-014
lhumerus -39.5541 15.4571 79.95
lradius 21.7498
lwrist -6.51069
lhand -14.9683 19.9654
lfingers 7.12502
lthumb 11.1954 49.6467
rfemur 14.2559 -0.120603 33.4553
rtibia 14.5773
rfoot -19.0444 -1.37632
rtoes 18.0152
lfemur -35.0356 4.98339 -9.70104
ltibia 41.7305
lfoot 15.5181 -6.50467
ltoes -3.35271
1280
root 20.1823 23.6548 9.43649 175.883 5.96005 -171.422
lowerback 4.83899 1.0037 7.57882
upperback 3.31538 2.07128 3.91359
thorax 0.820588 1.3105 -0.279086
lowerneck -9.92194 -4.31973 -8.5289
upperneck 41.3831 1.15147 2.31677
head 16.6985 1.42782 3.35606
rclavicle 2.23633e-014 3.85642e-014
rhumerus -32.7975 -6.22591 -80.7432
rradius 29.4598
rwrist -11.54
rhand -19.2779 10.5634
rfingers 7.12502
rthumb 7.03687 -19.2996
lclavicle 2.23633e-014 3.85642e-014
lhumerus -39.7441 15.2554 80.0179
lradius 22.0678
lwrist -6.3108
lhand -14.3275 20.2253
lfingers 7.12502
lthumb 11.8133 49.8721
rfemur 14.1119 0.128584 33.555
rtibia 15.3665
rfoot -19.5321 -1.44749
rtoes 16.9586
lfemur -34.6017 4.75729 -9.36845
ltibia 39.9423
lfoot 15.9618 -5.6106
ltoes -3.49162
1281
root 20.1794 23.6281 9.36193 175.907 6.17085 -171.61
lowerback 4.64983 1.14559 7.49948
upperback 3.32233 2.21854 3.79455
thorax 0.944772 1.37986 -0.356582
lowerneck -9.89014 -4.344 -8.45571
upperneck 41.3008 1.04587 2.34761
head 16.6493 1.39706 3.33318
rclavicle 3.72721e-016 3.89618e-014
rhumerus -32.866 -6.39835 -80.7578
rradius 29.579
rwrist -11.3706
rhand -19.1343 10.5391
rfingers 7.12502
rthumb 7.17556 -19.3193
lclavicle 3.72721e-016 3.89618e-014
lhumerus -39.6398 14.8604 80.195
lradius 22.2592
lwrist -6.0369
lhand -12.7352 20.6559
lfingers 7.12502
lthumb 13.3484 50.2083
rfemur 13.9102 0.0503949 33.2465
rtibia 16.2967
rfoot -20.1463 -1.30122
rtoes 16.3182
lfemur -34.1174 4.56708 -9.4532
ltibia 38.2176
lfoot 16.5036 -4.49103
ltoes -2.14954
1282
root 20.1797 23.5958 9.287 175.72 6.17754 -172.095
lowerback 4.54184 1.19673 7.04324
upperback 3.42424 2.23351 3.63256
thorax 1.10016 1.37936 -0.266331
lowerneck -9.96998 -4.34466 -8.42777
upperneck 41.2547 0.991322 2.39051
head 16.6453 1.37625 3.33525
rclavicle 2.78795e-014 5.36719e-014
rhumerus -32.7228 -6.55406 -80.7785
rradius 29.6269
rwrist -11.2474
rhand -18.8816 10.2537
rfingers 7.12502
rthumb 7.41946 -19.5962
lclavicle 2.78795e-014 5.36719e-014
lhumerus -39.4183 14.4153 80.478
lradius 22.443
lwrist -5.5853
lhand -11.7347 21.1963
lfingers 7.12502
lthumb 14.3126 50.683
rfemur 13.8872 -0.0303572 32.6879
rtibia 17.2426
rfoot -20.7904 -1.37489
rtoes 15.2375
lfemur -33.472 4.20567 -9.8737
ltibia 36.6039
lfoot 16.8774 -3.65371
ltoes -0.969461
1283
root 20.1845 23.5624 9.21642 175.629 6.29926 -172.126
lowerback 4.45698 1.19249 6.94419
upperback 3.45858 2.21293 3.63918
thorax 1.17774 1.36958 -0.200418
lowerneck -10.068 -4.31356 -8.47757
upperneck 41.3415 1.05759 2.44175
head 16.7132 1.40204 3.3855
rclavicle 1.2921e-014 -5.80451e-014
rhumerus -32.6412 -6.3594 -80.8709
rradius 29.7149
rwrist -11.4987
rhand -18.7229 10.1372
rfingers 7.12502
rthumb 7.57264 -19.7073
lclavicle 1.2921e-014 -5.80451e-014
lhumerus -39.3371 14.1703 80.7104
lradius 22.7132
lwrist -5.08388
lhand -11.5603 21.6779
lfingers 7.12502
lthumb 14.4806 51.1527
rfemur 13.7643 0.239729 32.749
rtibia 18.2355
rfoot -21.3614 -1.51979
rtoes 15.5153
lfemur -32.9561 3.92573 -9.7313
ltibia 35.1005
lfoot 17.0893 -3.07373
ltoes -1.22928
1284
root 20.1884 23.5267 9.14294 175.588 6.57463 -172.014
lowerback 4.40107 1.23066 6.9507
upperback 3.41116 2.2618 3.70806
thorax 1.15989 1.3922 -0.133744
lowerneck -10.0884 -4.30833 -8.50466
upperneck 41.4913 1.1342 2.4335
head 16.7984 1.43809 3.4121
rclavicle 1.11568e-014 2.22639e-014
rhumerus -32.75 -6.06248 -80.8805
rradius 29.8833
rwrist -12.1105
rhand -18.3302 10.0811
rfingers 7.12502
rthumb 7.95167 -19.7493
lclavicle 1.11568e-014 2.22639e-014
lhumerus -39.4912 13.947 80.8931
lradius 23.1159
lwrist -4.61055
lhand -11.7325 21.6391
lfingers 7.12502
lthumb 14.3148 51.1256
rfemur 13.6396 0.534567 32.9183
rtibia 19.2326
rfoot -21.9961 -1.47738
rtoes 16.5493
lfemur -32.4892 3.81769 -9.45197
ltibia 33.7158
lfoot 17.5148 -2.1204
ltoes -1.11301
1285
root 20.1831 23.4895 9.0648 175.498 6.76291 -172.19
lowerback 4.39266 1.25291 6.81546
upperback 3.32916 2.27601 3.64703
thorax 1.07762 1.38738 -0.124668
lowerneck -9.99496 -4.30653 -8.5168
upperneck 41.5658 1.17892 2.41141
head 16.8148 1.46262 3.4173
rclavicle 1.16041e-014 -2.10712e-014
rhumerus -32.88 -5.89894 -80.8576
rradius 29.9975
rwrist -12.4756
rhand -18.0502 9.81008
rfingers 7.12502
rthumb 8.22187 -20.0099
lclavicle 1.16041e-014 -2.10712e-014
lhumerus -39.7663 13.6128 81.0444
lradius 23.5426
lwrist -4.11659
lhand -11.9773 21.2624
lfingers 7.12502
lthumb 14.0789 50.7655
rfemur 13.5983 0.570392 32.6425
rtibia 20.1642
rfoot -22.6337 -1.24906
rtoes 16.7358
lfemur -32.0157 3.4609 -9.47943
ltibia 32.4717
lfoot 17.9805 -1.08757
ltoes 0.802142
1286
root 20.1758 23.4502 8.98816 175.504 7.03436 -172.32
lowerback 4.38521 1.28825 6.77982
upperback 3.22355 2.30878 3.5425
thorax 0.977553 1.39159 -0.216461
lowerneck -9.9244 -4.27562 -8.30531
upperneck 41.5023 1.2094 2.22526
head 16.758 1.48286 3.29385
rclavicle -1.61513e-014 1.86858e-014
rhumerus -33.1064 -5.62414 -81.0465
rradius 30.1667
rwrist -12.3541
rhand -18.4649 9.59028
rfingers 7.12502
rthumb 7.82169 -20.245
lclavicle -1.61513e-014 1.86858e-014
lhumerus -40.0526 13.4228 81.0166
lradius 23.9715
lwrist -3.93136
lhand -12.1089 21.0208
lfingers 7.12502
lthumb 13.952 50.5327
rfemur 13.4629 0.606363 32.396
rtibia 21.0503
rfoot -23.1747 -1.02717
rtoes 15.9016
lfemur -31.6483 3.10921 -9.39618
ltibia 31.3352
lfoot 18.3697 -0.138151
ltoes 4.04204
1287
root 20.1738 23.4047 8.91048 175.461 7.36456 -172.298
lowerback 4.45666 1.33255 6.72329
upperback 3.13881 2.37205 3.5574
thorax 0.850274 1.4148 -0.176811
lowerneck -9.97861 -4.24514 -7.99747
upperneck 41.5433 1.30344 1.92474
head 16.7887 1.53142 3.12226
rclavicle -2.73329e-015 -2.5842e-014
rhumerus -33.2981 -5.46839 -81.1406
rradius 30.1745
rwrist -12.1525
rhand -18.5651 9.9736
rfingers 7.12502
rthumb 7.72495 -19.8653
lclavicle -2.73329e-015 -2.5842e-014
lhumerus -40.3375 13.2443 81.0595
lradius 24.4934
lwrist -3.75226
lhand -12.1082 21.1056
lfingers 7.12502
lthumb 13.9527 50.6174
rfemur 13.4043 0.755116 32.3849
rtibia 21.9465
rfoot -23.7167 -0.95263
rtoes 15.2694
lfemur -31.2439 3.06646 -9.19898
ltibia 30.243
lfoot 18.8292 0.671863
ltoes 6.83623
1288
root 20.1724 23.355 8.82902 175.226 7.38991 -172.173
lowerback 4.50165 1.23261 6.73652
upperback 3.22622 2.25561 3.67116
thorax 0.904881 1.36623 -0.0624995
lowerneck -10.0447 -4.16531 -8.08502
upperneck 41.5325 1.43245 1.94068
head 16.7914 1.56691 3.16497
rclavicle -1.67973e-014 3.89618e-014
rhumerus -33.0757 -5.65594 -80.9908
rradius 29.9618
rwrist -11.8196
rhand -18.2661 10.3159
rfingers 7.12502
rthumb 8.01351 -19.5122
lclavicle -1.67973e-014 3.89618e-014
lhumerus -40.3598 12.9601 81.4095
lradius 24.9763
lwrist -3.12184
lhand -12.2444 21.3153
lfingers 7.12502
lthumb 13.8215 50.8361
rfemur 13.5415 0.614817 32.4811
rtibia 22.9069
rfoot -24.3143 -1.05122
rtoes 14.6212
lfemur -30.7248 2.98599 -9.02459
ltibia 29.1693
lfoot 19.5136 0.862406
ltoes 6.28606
1289
root 20.1692 23.3133 8.74611 175.032 7.4132 -172.127
lowerback 4.32862 1.10072 6.76477
upperback 3.44144 2.06833 3.72465
thorax 1.21383 1.29206 -0.00571315
lowerneck -10.1127 -3.98007 -8.35727
upperneck 41.279 1.57414 2.18332
head 16.6522 1.58758 3.32295
rclavicle -4.00054e-015 -3.45885e-014
rhumerus -32.6727 -5.50393 -81.0327
rradius 30.0276
rwrist -11.7266
rhand -18.266 9.81929
rfingers 7.12502
rthumb 8.01356 -20.0088
lclavicle -4.00054e-015 -3.45885e-014
lhumerus -40.2027 12.8772 81.6507
lradius 25.3566
lwrist -2.72376
lhand -12.297 21.1871
lfingers 7.12502
lthumb 13.7708 50.7114
rfemur 13.585 0.351667 32.4126
rtibia 23.9238
rfoot -24.9055 -1.09173
rtoes 13.2509
lfemur -30.1652 2.79699 -8.93708
ltibia 28.1146
lfoot 20.1266 0.709337
ltoes 1.06696
1290
root 20.1663 23.2762 8.65963 174.951 7.62948 -172.422
lowerback 4.06591 1.13208 6.4777
upperback 3.56287 2.05684 3.61239
thorax 1.4797 1.28537 0.0491523
lowerneck -10.2156 -3.8839 -8.32464
upperneck 41.1516 1.60602 2.27231
head 16.5993 1.59937 3.35091
rclavicle -1.67973e-014 1.98785e-015
rhumerus -32.4989 -5.26663 -81.1898
rradius 30.171
rwrist -11.9219
rhand -18.3917 9.34683
rfingers 7.12502
rthumb 7.89225 -20.4858
lclavicle -1.67973e-014 1.98785e-015
lhumerus -40.0772 12.5951 81.7686
lradius 25.7299
lwrist -2.42344
lhand -12.1279 20.8946
lfingers 7.12502
lthumb 13.9338 50.4077
rfemur 13.4888 0.289611 31.9423
rtibia 24.9506
rfoot -25.5145 -0.915402
rtoes 12.3544
lfemur -29.6455 2.74846 -9.21457
ltibia 27.1457
lfoot 20.4745 0.0237599
ltoes 0.333841
1291
root 20.1635 23.2264 8.56893 174.904 7.78497 -172.556
lowerback 3.84409 1.20062 6.35127
upperback 3.54133 2.10925 3.52084
thorax 1.58303 1.30491 0.0302111
lowerneck -10.0399 -3.8963 -8.11896
upperneck 41.0922 1.54437 2.18413
head 16.5251 1.60115 3.25845
rclavicle -1.17034e-014 -3.97569e-016
rhumerus -32.5683 -5.52646 -81.164
rradius 30.0563
rwrist -11.7991
rhand -18.4655 9.57168
rfingers 7.12502
rthumb 7.8211 -20.2637
lclavicle -1.17034e-014 -3.97569e-016
lhumerus -40.119 11.953 81.9875
lradius 26.1478
lwrist -1.75565
lhand -12.2258 20.8374
lfingers 7.12502
lthumb 13.8394 50.357
rfemur 13.364 0.276743 31.6744
rtibia 26.0214
rfoot -26.2098 -0.831052
rtoes 12.1524
lfemur -29.2242 2.86861 -9.37909
ltibia 26.2707
lfoot 20.8516 -1.09212
ltoes -3.72413
